<svg width="47" height="46" viewBox="0 0 47 46" fill="none" xmlns="http://www.w3.org/2000/svg">
<path d="M3.33619 32.0007C3.41598 28.7759 6.09434 26.2458 9.31847 26.3495L11.4207 26.4172C16.1852 26.5705 19.952 30.558 19.8341 35.3235C19.7162 40.089 15.7582 43.8279 10.9937 43.6746L9.93959 43.6407C6.13658 43.5183 3.12994 40.3355 3.22407 36.5317L3.33619 32.0007Z" stroke="#1064F2" stroke-width="3"/>
<path d="M42.8091 34.8862C42.8091 40.0069 38.658 44.158 33.5374 44.158H32.7864C28.0821 44.158 24.2656 40.3223 24.2656 35.6149C24.2656 30.055 28.7731 25.5246 34.3297 25.5246C39.0127 25.5246 42.8091 29.321 42.8091 34.004V34.8862Z" fill="#1064F2" stroke="#1064F2"/>
<path d="M41.6419 14.4411C41.6848 17.5808 39.1744 20.1712 36.0349 20.2269C30.2502 20.3295 25.4968 15.723 25.4178 9.93795L25.4013 8.72562C25.3529 5.18417 28.1845 2.26232 31.7257 2.19948L32.3288 2.18877C37.3787 2.09915 41.5284 6.12055 41.5973 11.1708L41.6419 14.4411Z" stroke="#1064F2" stroke-width="3"/>
<path d="M18.5435 10.9835C18.5435 16.1515 14.354 20.3409 9.186 20.3409C5.21729 20.3409 2.00002 17.1237 2.00002 13.155V10.9181C2.00002 6.34973 5.7034 2.64635 10.2717 2.64635H11.1744C15.2442 2.64635 18.5435 5.94561 18.5435 10.0155V10.9835Z" stroke="#1064F2" stroke-width="3"/>
<path d="M13.925 11.2283C13.925 13.734 12.1701 15.5346 10.2719 15.5346C8.37359 15.5346 6.61865 13.734 6.61865 11.2283C6.61865 8.72257 8.37359 6.922 10.2719 6.922C12.1701 6.922 13.925 8.72257 13.925 11.2283Z" stroke="#1064F2" stroke-width="2"/>
<path d="M5.98242 30.7214C5.98242 32.2006 6.96024 33.03 7.81721 34.0072C8.55648 34.8503 9.78403 35.7963 10.7761 36.188C12.0136 36.6764 13.4271 36.4976 14.6137 35.9964C15.2595 35.7236 15.6924 35.266 16.2417 34.8324C16.7619 34.4217 16.9446 33.8688 17.3788 33.3737" stroke="#FBFCFF" stroke-width="3" stroke-linecap="round"/>
<path d="M32.1236 42.5952C32.1236 41.5019 32.0211 40.3419 32.1732 39.262C32.3758 37.8235 33.2068 36.5063 33.9319 35.3497C34.9433 33.7365 36.1314 32.4359 37.5609 31.3103C38.8656 30.2827 40.226 29.4083 41.6605 28.6408C42.5677 28.1554 43.4588 27.5711 44.4224 27.2426C44.6426 27.1675 45.352 26.7498 45.5 27.0872" stroke="#FBFCFF" stroke-width="3" stroke-linecap="round"/>
</svg>
